<?xml version="1.0" encoding="iso-8859-1"?>
<!-- Generator: Adobe Illustrator 19.0.0, SVG Export Plug-In . SVG Version: 6.00 Build 0)  -->
<svg version="1.1" id="Layer_1" xmlns="http://www.w3.org/2000/svg" xmlns:xlink="http://www.w3.org/1999/xlink" x="0px" y="0px"
	 viewBox="0 0 481.882 481.882" style="enable-background:new 0 0 481.882 481.882;" xml:space="preserve">
<path style="fill:#FDD835;" d="M451.765,60.235H247.176c-3.991,0-7.823-1.581-10.647-4.405L215.228,34.53
	c-2.824-2.824-6.656-4.412-10.647-4.412H30.118C13.485,30.118,0,43.603,0,60.235v391.529h421.647
	c33.257,0,60.235-26.97,60.235-60.235V90.353h-30.118V60.235z"/>
<path style="fill:#FFF59D;" d="M481.882,90.353h-261.76c-5.707,0-10.918,3.23-13.47,8.328l-21.79,43.588
	c-2.552,5.105-7.763,8.32-13.47,8.32H30.118C13.485,150.588,0,164.073,0,180.706v271.059h421.647
	c33.257,0,60.235-26.97,60.235-60.235V90.353z"/>
<g>
</g>
<g>
</g>
<g>
</g>
<g>
</g>
<g>
</g>
<g>
</g>
<g>
</g>
<g>
</g>
<g>
</g>
<g>
</g>
<g>
</g>
<g>
</g>
<g>
</g>
<g>
</g>
<g>
</g>
</svg>
